<svg xmlns="http://www.w3.org/2000/svg" version="1.1" xmlns:xlink="http://www.w3.org/1999/xlink" xmlns:svgjs="http://svgjs.com/svgjs" width="1000" height="1000"><rect width="1000" height="1000" rx="350" ry="350" fill="#ffffff"></rect><g transform="matrix(0.9765625,0,0,0.9765625,0.1730620265007019,0.2832505702972412)"><svg xmlns="http://www.w3.org/2000/svg" version="1.1" xmlns:xlink="http://www.w3.org/1999/xlink" xmlns:svgjs="http://svgjs.com/svgjs" width="1024" height="1024"><svg version="1.1" xmlns="http://www.w3.org/2000/svg" width="1024" height="1024" viewBox="0 0 1024 1024">
<title></title>
<g id="icomoon-ignore">
</g>
<path fill="#000" d="M936.659 524.047v0c-0.146-2.556-1.351-4.805-3.178-6.333l-0.014-0.011c-2.386-2.239-5.234-4.018-8.382-5.175l-0.172-0.055c-8.403-3.584-19.396-4.959-28.401-4.799h-336.986v-171.038c0.017-0.163 0.026-0.351 0.026-0.542s-0.010-0.38-0.028-0.566l0.002 0.023v-169.331c2.962 0.402 5.913 0.823 8.865 1.295 2.429 0.462 4.859 0.914 7.278 1.416q14.205 2.931 28.11 6.947l4.849 1.436 0.763 0.251q6.787 2.249 13.513 4.759 13.342 5.020 26.283 10.973 7.027 3.273 13.985 6.827l2.5 1.345q3.102 1.697 6.164 3.464 13.463 7.7 26.253 16.504c58.463 40.259 103.737 95.859 130.471 161.026l0.872 2.402c2.229 5.361 14.055 8.704 18.462 9.798 6.017 1.482 12.924 2.332 20.030 2.332 3.846 0 7.634-0.249 11.349-0.732l-0.438 0.047c9.778-1.325 34.133-5.431 28.050-20.159-26.574-64.131-70.877-120.099-126.303-161.812-60.767-45.769-134.746-72.985-210.211-81.006-78.627-8.363-160.467 2.319-232.91 34.645-62.805 28.019-118.282 71.479-159.423 126.725-40.852 54.671-67.795 121.927-74.402 195.050l-0.109 1.498q-1.355 15.812-1.395 31.684c-0.019 0.173-0.030 0.374-0.030 0.577s0.011 0.404 0.032 0.602l-0.002-0.024c0.145 2.557 1.35 4.806 3.178 6.333l0.014 0.011c2.386 2.242 5.233 4.024 8.382 5.185l0.172 0.055c8.393 3.584 19.386 4.959 28.391 4.799h336.946v171.068c-0.019 0.163-0.030 0.351-0.030 0.542s0.011 0.379 0.032 0.565l-0.002-0.023v169.341c-3.012-0.402-5.923-0.823-8.885-1.295-2.429-0.462-4.869-0.924-7.299-1.426q-14.185-2.931-28.11-6.947l-4.829-1.436-0.783-0.261q-6.807-2.249-13.523-4.759-13.342-5.020-26.293-10.983-7.027-3.253-13.944-6.807l-2.54-1.375c-2.068-1.134-4.126-2.279-6.174-3.453q-13.443-7.71-26.253-16.515c-17.321-12.027-32.494-24.43-46.637-37.904l0.155 0.147c-35.209-34.637-63.689-75.99-83.383-122l-0.946-2.486c-2.239-5.371-14.055-8.704-18.452-9.798-6.029-1.484-12.951-2.335-20.072-2.335-3.831 0-7.605 0.246-11.307 0.724l0.437-0.046c-9.738 1.325-34.204 5.451-28.050 20.169 26.795 64.040 71.278 119.908 126.876 161.431 60.797 45.427 134.596 72.433 209.87 80.314 78.647 8.212 160.417-2.54 232.819-34.997 62.544-28.040 117.79-71.389 158.79-126.494 40.858-54.672 67.802-121.933 74.402-195.062l0.109-1.496q1.355-15.802 1.395-31.684c0.049-0.262 0.078-0.564 0.078-0.872 0-0.096-0.003-0.191-0.008-0.285l0.001 0.013zM717.372 540.481h138.541c-1.598 35.923-7.932 69.794-18.399 101.794l0.761-2.687c-13.749 40.198-32.424 75.063-55.781 106.215l0.706-0.984-37.045-37.055c-0.897-1.215-1.938-2.255-3.112-3.124l-0.040-0.028-8.403-8.413-155.748-155.758h138.541zM559.526 652.83v-45.458l88.917 88.927h-88.917zM572.346 168.157l-2.891-0.452zM567.075 167.263l0.883 0.171c-6.485-1.084-3.102-0.592-0.883-0.171zM471.070 167.394l-3.785 0.612zM471.191 167.394c3.072-0.522 6.174-1.004 0 0zM294.149 259.172c11.753-11.199 24.391-21.786 37.681-31.537l1.070-0.749q10.692-7.76 21.926-14.758 5.481-3.423 11.043-6.646c2.008-1.124 3.935-2.249 5.923-3.343l2.389-1.305 2.399-1.295-3.875 2.008c15.762-8.965 33.129-15.862 50.196-21.845q2.61-0.924 5.23-1.787c1.847-0.070 4.708-1.486 6.405-2.008q3.674-1.004 7.369-2.008 13.181-3.524 26.584-6.084l2.58-0.452c1.004-0.161 2.078-0.331 3.122-0.482 1.646-0.241 3.293-0.462 4.949-0.683v152.957h-234.727c8.208-12.236 16.128-22.734 24.566-32.783l-0.472 0.577c8.041-9.688 16.605-18.904 25.64-27.779zM321.375 507.703h-138.541c1.595-35.922 7.929-69.793 18.399-101.792l-0.76 2.685c7.513-22.099 15.76-40.817 25.398-58.674l-0.993 2.012h254.333v155.768h-157.847zM466.362 880.028l2.891 0.472zM471.632 880.911l-0.853-0.161c6.445 1.074 3.072 0.582 0.853 0.161zM567.657 880.791l3.795-0.612zM567.547 880.791c-3.082 0.522-6.184 1.004 0 0zM683.901 836.046q-5.481 3.403-11.043 6.636-2.941 1.707-5.923 3.353l-2.389 1.305-2.399 1.295 3.875-2.008c-15.762 8.975-33.129 15.872-50.196 21.855q-2.61 0.914-5.23 1.787c-1.837 0.070-4.698 1.476-6.405 2.008q-3.674 1.074-7.369 2.058-13.171 3.524-26.574 6.024c-0.663 0.131-1.626 0.291-2.59 0.462l-3.122 0.482c-1.646 0.241-3.293 0.462-4.939 0.683v-152.957h121.625l32.969 32.949q14.336 14.356 28.712 28.692c-11.215 10.552-23.287 20.593-35.953 29.871l-1.071 0.749q-10.742 7.77-21.976 14.768z"></path>
</svg></svg></g></svg>